<svg width="2614" height="2473" viewBox="0 0 2614 2473" fill="none" xmlns="http://www.w3.org/2000/svg">
<path d="M1.73333 1.20007C0.266667 2.00012 0 193.333 0 1074C0 1663.47 0.4 2146 0.666667 2146.4C1.2 2146.8 673.333 2147.2 680.533 2146.8C682.133 2146.67 681.467 1422.4 679.867 1420.27C678.8 1419.07 650.533 1418.67 546.8 1418.67C437.6 1418.67 414.933 1418.4 413.6 1416.8C412.533 1415.47 412.267 1347.07 412.4 1158.53L412.8 902L547.733 901.333C621.867 900.933 682.933 900.4 683.333 900C684.533 898.8 684.533 829.2 683.333 828C682.667 827.467 601.6 826.667 503.067 826.267L324 825.6L322.667 828.933C320.667 834.133 321.067 1501.73 323.067 1503.73C324.267 1504.93 357.867 1505.33 466.267 1505.33H607.867L608.667 1508.4C609.067 1510.13 609.333 1637.87 609.333 1792.27C609.333 2022.93 609.067 2073.33 607.6 2074.53C606.4 2075.6 532.267 2075.87 345.333 2075.73L84.8 2075.33V1952V1828.67L243.867 1828C383.333 1827.47 403.067 1827.07 404.133 1825.33C405.867 1822.67 405.867 1766.53 404.133 1762.13L402.933 1758.67L243.867 1758.4L84.8 1758V1184V610L381.867 609.333C644 608.8 679.067 608.4 680.133 606.667C681.2 604.933 682.267 296.667 681.2 295.733C680.933 295.467 618.667 295.067 542.8 294.667L404.8 294L404.4 194.667C404.133 102.4 404.267 95.2001 406.4 93.6C408.133 92.4 465.067 91.9999 680.133 91.9999C895.2 91.9999 952.133 92.4 953.867 93.6C956 95.2001 956.133 122.8 956.133 500.533C956.267 764.267 956.667 906.667 957.6 908.267C958.8 910.533 964 910.667 1090.67 910.667C1199.73 910.667 1222.67 910.933 1224 912.4C1225.07 913.733 1225.6 995.333 1225.73 1214.8L1226.13 1515.33L1267.2 1515.73C1299.33 1516 1308.4 1515.73 1308.8 1514.4C1309.2 1513.47 1309.6 1377.73 1309.87 1212.93C1310.13 948.267 1310.4 913.067 1312.13 912C1313.33 911.2 1359.47 910.667 1430.4 910.667C1544 910.667 1546.8 910.667 1548.13 908.133C1549.6 905.333 1550 838.933 1548.67 833.6L1547.87 830.667H1288.13C1053.73 830.667 1028.13 830.4 1026.27 828.533C1024.4 826.667 1024.13 791.467 1024.13 460.8C1024.13 178.267 1024.53 94.7999 1025.73 93.6C1026.93 92.4 1197.6 91.9999 1785.6 91.9999C2202.67 91.9999 2544.8 92.4 2546 92.7999C2548 93.6 2548.13 114.933 2548.13 321.333C2548.13 510.4 2547.87 549.2 2546.4 550.533C2545.07 551.6 2463.6 552 2245.6 552C2081.07 552 1946 552.267 1945.33 552.8C1944.67 553.2 1944.13 568.533 1944.13 588C1944.13 618.133 1944.4 622.533 1946.27 623.2C1947.47 623.6 2097.33 624 2279.47 624C2554.4 624 2610.67 623.733 2612 622.267C2613.87 619.867 2614 8.40002 2612.13 3.33337L2610.8 -0.00012207H1307.2C590.133 -0.00012207 2.66667 0.533325 1.73333 1.20007ZM328.667 92.7999C330.533 93.6 330.8 103.6 330.8 193.467C330.8 291.2 330.8 293.467 328.267 294.4C326.8 294.933 271.467 295.067 205.2 294.667L84.8 294L84.4 194.133C84.1333 115.067 84.4 93.9999 85.7333 93.0665C87.7333 91.8666 325.467 91.6 328.667 92.7999ZM608.4 368.4C608.933 369.2 609.467 406.4 609.467 450.933C609.467 522.667 609.2 532 607.333 533.867C605.467 535.733 580 536 346.267 536C146.667 536 86.9333 535.6 85.7333 534.4C84.5333 533.2 84.1333 512.667 84.1333 450.4C84.1333 370 84.1333 367.867 86.6667 366.933C88.1333 366.4 205.867 366.133 348.267 366.4C552.933 366.667 607.6 367.067 608.4 368.4Z" fill="white"/>
<path d="M1589.73 296.267C1588.53 297.467 1588.13 326.267 1588.13 417.6C1588.13 533.867 1588 537.333 1585.6 538.533C1583.87 539.467 1532.8 540 1434.67 540C1327.73 540 1285.87 540.4 1284.53 541.467C1283.2 542.667 1282.8 550 1282.8 576.133C1282.8 607.333 1282.93 609.333 1285.33 610.667C1288.13 612 1647.2 612.8 1649.6 611.333C1650.27 610.8 1650.8 563.067 1650.8 486.133C1650.8 382.533 1651.07 361.467 1652.67 360.133C1654 359.067 1742 358.667 1990.27 358.533C2175.07 358.4 2327.6 358 2329.47 357.467L2332.8 356.533L2333.2 327.467C2333.47 307.067 2333.07 297.733 2332 296.533C2330.67 294.933 2273.07 294.667 1960.93 294.667C1675.2 294.667 1590.93 295.067 1589.73 296.267Z" fill="white"/>
<path d="M1918.13 823.2C1915.6 825.067 1915.6 831.6 1916 1169.47C1916.27 1358.93 1916.67 1514.4 1917.07 1514.93C1917.33 1515.6 1998.27 1516 2096.67 1516H2275.87L2276.67 1512.93C2277.07 1511.33 2277.47 1492.53 2277.47 1471.07C2277.47 1437.47 2277.2 1431.87 2275.33 1430.13C2273.47 1428.27 2259.6 1428 2142.13 1428C2070 1428 2010.13 1427.6 2008.93 1427.2C2006.93 1426.4 2006.8 1402.67 2006.8 1170.67C2006.8 949.333 2007.07 914.8 2008.67 913.333C2011.47 911.2 2545.6 912.933 2547.07 915.2C2547.6 916 2548 1106 2547.73 1337.33L2547.47 1758L2100.4 1758.4L1653.47 1758.67L1652.13 1755.2C1651.2 1753.07 1650.8 1693.2 1650.8 1591.07C1650.8 1502.8 1650.53 1429.87 1650.13 1429.2C1648.93 1427.33 1581.07 1427.6 1579.07 1429.6C1577.87 1430.8 1577.47 1469.2 1577.47 1594.13C1577.47 1695.33 1576.93 1757.47 1576.27 1758C1575.47 1758.4 1510.27 1758.67 1431.2 1758.67C1342.27 1758.67 1286.67 1759.2 1285.47 1760C1283.73 1761.07 1283.47 1766.4 1283.07 1792.27C1282.93 1810.53 1283.33 1824.13 1284 1825.33C1285.2 1827.07 1304 1827.33 1429.87 1827.47C1509.47 1827.6 1575.2 1828.13 1576 1828.53C1577.07 1829.2 1577.47 1871.07 1577.47 1980.53C1577.47 2096.13 1577.87 2131.87 1579.07 2133.07C1581.07 2135.07 1648.93 2135.33 1650.13 2133.33C1650.53 2132.67 1650.93 2064 1650.8 1980.8C1650.8 1890.4 1651.2 1829.2 1652 1828.8C1653.6 1827.73 2545.2 1827.73 2546.8 1828.67C2547.73 1829.2 2548.13 1930.27 2548.13 2108.67C2548.13 2383.33 2548.13 2387.87 2545.6 2389.33C2542 2391.2 2002.27 2391.2 1998.67 2389.33C1996.13 2387.87 1996.13 2384.67 1996.13 2224V2060L1993.2 2059.33C1991.47 2058.93 1975.47 2058.8 1957.47 2058.93L1924.8 2059.33L1924.4 2224.13L1924.13 2389.07L1921.07 2389.87C1915.6 2391.33 1305.47 2390.8 1302.67 2389.33C1300.13 2387.87 1300.13 2384.67 1300.13 2224C1300.13 2133.73 1300 2059.87 1299.87 2059.73C1299.6 2059.47 1238.27 2059.07 1163.47 2058.67L1027.47 2058L1027.07 1608.4C1026.8 1162.93 1026.8 1158.8 1024.13 1157.33C1022.53 1156.4 1009.6 1156.13 987.867 1156.27L954.133 1156.67L953.867 1648C953.6 1956.27 954 2140.13 954.8 2141.33C955.867 2143.07 972.8 2143.33 1092.27 2143.6C1201.33 2143.87 1228.8 2144.27 1229.73 2145.6C1231.2 2148.13 1231.07 2385.47 1229.47 2388C1228.4 2389.73 1158.13 2390.13 614.533 2390.67L0.800033 2391.33L0.400033 2430.53C0.266699 2452.13 0.533366 2470.27 1.20003 2470.93C2.93337 2472.67 2606.8 2472.27 2608.93 2470.53C2610.53 2469.2 2610.8 2343.6 2610.67 1650.8C2610.67 1200.8 2610.13 830.267 2609.73 827.333L2608.8 822L2264.67 821.6C1971.73 821.333 1920.27 821.6 1918.13 823.2Z" fill="white"/>
<path d="M322 1505L608.5 1506H681V1417H417L414 904H685V823.5H322V1505Z" fill="#91211E" stroke="#91211E"/>
<path d="M1913.5 1517.5H2204.5H2278.5L2276.5 1424H2007.5V912.5L2279.5 913.5V821.5L2094.5 821H1911.5L1913.5 1167V1517.5Z" fill="#91211E" stroke="#91211E"/>
<path d="M957 828L1549 830V911L1311.5 912L1309.23 1516H1223.5V912L957 910.5V828Z" fill="#91211E" stroke="#91211E"/>
</svg>
